<?xml version="1.0" encoding="UTF-8" standalone="no"?>
<svg
   xmlns:dc="http://purl.org/dc/elements/1.1/"
   xmlns:cc="http://creativecommons.org/ns#"
   xmlns:rdf="http://www.w3.org/1999/02/22-rdf-syntax-ns#"
   xmlns:svg="http://www.w3.org/2000/svg"
   xmlns="http://www.w3.org/2000/svg"
   xmlns:sodipodi="http://sodipodi.sourceforge.net/DTD/sodipodi-0.dtd"
   xmlns:inkscape="http://www.inkscape.org/namespaces/inkscape"
   version="1.0"
   width="195.59375pt"
   height="224.29942pt"
   viewBox="0 0 195.59375 224.29943"
   preserveAspectRatio="xMidYMid meet"
   id="svg78"
   sodipodi:docname="logo-white.svg"
   inkscape:version="0.92.1 r15371">
  <defs
     id="defs82" />
  <sodipodi:namedview
     pagecolor="#ffffff"
     bordercolor="#666666"
     borderopacity="1"
     objecttolerance="10"
     gridtolerance="10"
     guidetolerance="10"
     inkscape:pageopacity="0"
     inkscape:pageshadow="2"
     inkscape:window-width="1920"
     inkscape:window-height="1017"
     id="namedview80"
     showgrid="false"
     fit-margin-top="2.5"
     fit-margin-right="2.5"
     fit-margin-bottom="2.5"
     fit-margin-left="2.5"
     inkscape:zoom="0.834386"
     inkscape:cx="-45.707553"
     inkscape:cy="95.47824"
     inkscape:window-x="1672"
     inkscape:window-y="-8"
     inkscape:window-maximized="1"
     inkscape:current-layer="layer1" />
  <metadata
     id="metadata2">
Created by potrace 1.10, written by Peter Selinger 2001-2011
<rdf:RDF>
  <cc:Work
     rdf:about="">
    <dc:format>image/svg+xml</dc:format>
    <dc:type
       rdf:resource="http://purl.org/dc/dcmitype/StillImage" />
    <dc:title />
  </cc:Work>
</rdf:RDF>
</metadata>
  <g
     inkscape:groupmode="layer"
     id="layer1"
     inkscape:label="Layer 1"
     style="display:inline">
    <path
       inkscape:connector-curvature="0"
       style="opacity:1;fill:#fbfbfb;fill-opacity:1;stroke:none;stroke-width:5.11972141;stroke-linecap:round;stroke-miterlimit:4;stroke-dasharray:none;stroke-opacity:1"
       d="M 97.901991,3.865936 A 13.263283,13.263283 0 0 0 84.637831,17.130097 13.263283,13.263283 0 0 0 97.901991,30.392793 13.263283,13.263283 0 0 0 111.16469,17.130097 13.263283,13.263283 0 0 0 97.901991,3.865936 Z m -0.86572,41.904787 a 30.563217,54.01424 0 0 0 -30.5625,54.014653 30.563217,54.01424 0 0 0 10.88525,41.327644 h -17.00244 a 31.139882,63.240876 0 0 1 -1.09717,-2.92969 31.139882,63.240876 0 0 1 -1.62744,-5.3877 31.139882,63.240876 0 0 1 -1.35351,-5.69238 31.139882,63.240876 0 0 1 -1.06787,-5.93847 31.139882,63.240876 0 0 1 -0.76905,-6.12598 31.139882,63.240876 0 0 1 -0.46582,-6.24902 31.139882,63.240876 0 0 1 -0.15527,-6.31495 31.139882,63.240876 0 0 1 0.0776,-4.472167 31.139882,63.240876 0 0 1 0.375,-6.275392 31.139882,63.240876 0 0 1 0.68262,-6.168458 31.139882,63.240876 0 0 1 0.98144,-6.000001 31.139882,63.240876 0 0 1 1.27149,-5.76856 31.139882,63.240876 0 0 1 1.54833,-5.482906 31.139882,63.240876 0 0 1 1.81055,-5.143067 31.139882,63.240876 0 0 1 1.44873,-3.348633 50.554256,51.899805 0 0 0 -9.54199,-0.972656 50.554256,51.899805 0 0 0 -50.5532301,51.89943 50.554256,51.899805 0 0 0 18.1728501,39.84082 c -0.0823,0.54846 -0.13769,1.10658 -0.13769,1.67871 v 7.68896 c 0,6.17646 4.97246,11.14747 11.14893,11.14747 H 162.96885 c 6.17646,0 11.14892,-4.97101 11.14892,-11.14747 v -7.68896 c 0,-0.47116 -0.0376,-0.9332 -0.0937,-1.38867 a 50.554256,51.899804 0 0 0 18.54639,-40.13086 50.554256,51.899804 0 0 0 -50.55469,-51.89943 50.554256,51.899804 0 0 0 -9.54053,0.972656 31.139882,63.240877 0 0 1 1.44873,3.348633 31.139882,63.240877 0 0 1 1.81055,5.143067 31.139882,63.240877 0 0 1 1.54834,5.482906 31.139882,63.240877 0 0 1 1.27148,5.76856 31.139882,63.240877 0 0 1 0.98145,6.000001 31.139882,63.240877 0 0 1 0.68115,6.168458 31.139882,63.240877 0 0 1 0.37647,6.275392 31.139882,63.240877 0 0 1 0.0776,4.472167 31.139882,63.240877 0 0 1 -0.15528,6.31495 31.139882,63.240877 0 0 1 -0.46582,6.24902 31.139882,63.240877 0 0 1 -0.76904,6.12598 31.139882,63.240877 0 0 1 -1.06788,5.93847 31.139882,63.240877 0 0 1 -1.35351,5.69238 31.139882,63.240877 0 0 1 -1.62891,5.3877 31.139882,63.240877 0 0 1 -1.09716,2.92969 H 116.6681 A 30.563217,54.01424 0 0 0 127.60023,99.785376 30.563217,54.01424 0 0 0 97.036271,45.770723 Z M 31.105121,184.66282 c -6.17647,0 -11.14893,4.97247 -11.14893,11.14893 v 7.68751 c 0,6.17646 4.97246,11.14892 11.14893,11.14892 H 162.96889 c 6.17646,0 11.14892,-4.97246 11.14892,-11.14892 v -7.68751 c 0,-6.17646 -4.97246,-11.14893 -11.14892,-11.14893 z"
       id="path4537" />
  </g>
</svg>
