<?xml version="1.0" encoding="UTF-8" standalone="no"?>
<svg
   xmlns:dc="http://purl.org/dc/elements/1.1/"
   xmlns:cc="http://creativecommons.org/ns#"
   xmlns:rdf="http://www.w3.org/1999/02/22-rdf-syntax-ns#"
   xmlns:svg="http://www.w3.org/2000/svg"
   xmlns="http://www.w3.org/2000/svg"
   xmlns:sodipodi="http://sodipodi.sourceforge.net/DTD/sodipodi-0.dtd"
   xmlns:inkscape="http://www.inkscape.org/namespaces/inkscape"
   version="1.0"
   width="152.59375pt"
   height="34.299419pt"
   viewBox="0 0 152.59375 34.299426"
   preserveAspectRatio="xMidYMid meet"
   id="svg78"
   sodipodi:docname="logo-white-name.svg"
   inkscape:version="0.92.1 r15371">
  <defs
     id="defs82" />
  <sodipodi:namedview
     pagecolor="#ffffff"
     bordercolor="#666666"
     borderopacity="1"
     objecttolerance="10"
     gridtolerance="10"
     guidetolerance="10"
     inkscape:pageopacity="0"
     inkscape:pageshadow="2"
     inkscape:window-width="1920"
     inkscape:window-height="1017"
     id="namedview80"
     showgrid="false"
     fit-margin-top="2.5"
     fit-margin-right="2.5"
     fit-margin-bottom="2.5"
     fit-margin-left="2.5"
     inkscape:zoom="2.36"
     inkscape:cx="27.457438"
     inkscape:cy="12.870463"
     inkscape:window-x="1672"
     inkscape:window-y="-8"
     inkscape:window-maximized="1"
     inkscape:current-layer="text4516" />
  <metadata
     id="metadata2">
Created by potrace 1.10, written by Peter Selinger 2001-2011
<rdf:RDF>
  <cc:Work
     rdf:about="">
    <dc:format>image/svg+xml</dc:format>
    <dc:type
       rdf:resource="http://purl.org/dc/dcmitype/StillImage" />
    <dc:title></dc:title>
  </cc:Work>
</rdf:RDF>
</metadata>
  <g
     inkscape:groupmode="layer"
     id="layer1"
     inkscape:label="Layer 1"
     style="display:none"
     sodipodi:insensitive="true"
     transform="translate(0,-190.00045)">
    <path
       inkscape:connector-curvature="0"
       style="opacity:1;fill:#fbfbfb;fill-opacity:1;stroke:none;stroke-width:5.11972141;stroke-linecap:round;stroke-miterlimit:4;stroke-dasharray:none;stroke-opacity:1"
       d="M 97.901991,3.865936 A 13.263283,13.263283 0 0 0 84.637831,17.130097 13.263283,13.263283 0 0 0 97.901991,30.392793 13.263283,13.263283 0 0 0 111.16469,17.130097 13.263283,13.263283 0 0 0 97.901991,3.865936 Z m -0.86572,41.904787 a 30.563217,54.01424 0 0 0 -30.5625,54.014653 30.563217,54.01424 0 0 0 10.88525,41.327644 h -17.00244 a 31.139882,63.240876 0 0 1 -1.09717,-2.92969 31.139882,63.240876 0 0 1 -1.62744,-5.3877 31.139882,63.240876 0 0 1 -1.35351,-5.69238 31.139882,63.240876 0 0 1 -1.06787,-5.93847 31.139882,63.240876 0 0 1 -0.76905,-6.12598 31.139882,63.240876 0 0 1 -0.46582,-6.24902 31.139882,63.240876 0 0 1 -0.15527,-6.31495 31.139882,63.240876 0 0 1 0.0776,-4.472167 31.139882,63.240876 0 0 1 0.375,-6.275392 31.139882,63.240876 0 0 1 0.68262,-6.168458 31.139882,63.240876 0 0 1 0.98144,-6.000001 31.139882,63.240876 0 0 1 1.27149,-5.76856 31.139882,63.240876 0 0 1 1.54833,-5.482906 31.139882,63.240876 0 0 1 1.81055,-5.143067 31.139882,63.240876 0 0 1 1.44873,-3.348633 50.554256,51.899805 0 0 0 -9.54199,-0.972656 50.554256,51.899805 0 0 0 -50.5532301,51.89943 50.554256,51.899805 0 0 0 18.1728501,39.84082 c -0.0823,0.54846 -0.13769,1.10658 -0.13769,1.67871 v 7.68896 c 0,6.17646 4.97246,11.14747 11.14893,11.14747 H 162.96885 c 6.17646,0 11.14892,-4.97101 11.14892,-11.14747 v -7.68896 c 0,-0.47116 -0.0376,-0.9332 -0.0937,-1.38867 a 50.554256,51.899804 0 0 0 18.54639,-40.13086 50.554256,51.899804 0 0 0 -50.55469,-51.89943 50.554256,51.899804 0 0 0 -9.54053,0.972656 31.139882,63.240877 0 0 1 1.44873,3.348633 31.139882,63.240877 0 0 1 1.81055,5.143067 31.139882,63.240877 0 0 1 1.54834,5.482906 31.139882,63.240877 0 0 1 1.27148,5.76856 31.139882,63.240877 0 0 1 0.98145,6.000001 31.139882,63.240877 0 0 1 0.68115,6.168458 31.139882,63.240877 0 0 1 0.37647,6.275392 31.139882,63.240877 0 0 1 0.0776,4.472167 31.139882,63.240877 0 0 1 -0.15528,6.31495 31.139882,63.240877 0 0 1 -0.46582,6.24902 31.139882,63.240877 0 0 1 -0.76904,6.12598 31.139882,63.240877 0 0 1 -1.06788,5.93847 31.139882,63.240877 0 0 1 -1.35351,5.69238 31.139882,63.240877 0 0 1 -1.62891,5.3877 31.139882,63.240877 0 0 1 -1.09716,2.92969 H 116.6681 A 30.563217,54.01424 0 0 0 127.60023,99.785376 30.563217,54.01424 0 0 0 97.036271,45.770723 Z M 31.105121,184.66282 c -6.17647,0 -11.14893,4.97247 -11.14893,11.14893 v 7.68751 c 0,6.17646 4.97246,11.14892 11.14893,11.14892 H 162.96889 c 6.17646,0 11.14892,-4.97246 11.14892,-11.14892 v -7.68751 c 0,-6.17646 -4.97246,-11.14893 -11.14892,-11.14893 z"
       id="path4537" />
  </g>
  <g
     inkscape:groupmode="layer"
     id="layer2"
     inkscape:label="Layer 2"
     transform="translate(0,-190.00045)">
    <path
       inkscape:connector-curvature="0"
       style="display:inline;opacity:1;fill:#808080;fill-opacity:1;stroke:none;stroke-width:0.63813627;stroke-linecap:round;stroke-miterlimit:4;stroke-dasharray:none;stroke-opacity:1"
       d="m 14.449391,194.56026 a 1.6531725,1.6531725 0 0 0 -1.653279,1.65329 1.6531725,1.6531725 0 0 0 1.653279,1.65311 1.6531725,1.6531725 0 0 0 1.653098,-1.65311 1.6531725,1.6531725 0 0 0 -1.653098,-1.65329 z m -0.107904,5.22315 a 3.8094846,6.7324852 0 0 0 -3.809392,6.73253 3.8094846,6.7324852 0 0 0 1.356771,5.15119 H 9.7696282 a 3.8813617,7.8825191 0 0 1 -0.1367523,-0.36516 3.8813617,7.8825191 0 0 1 -0.2028491,-0.67154 3.8813617,7.8825191 0 0 1 -0.1687067,-0.70951 3.8813617,7.8825191 0 0 1 -0.1330998,-0.74018 3.8813617,7.8825191 0 0 1 -0.095852,-0.76357 3.8813617,7.8825191 0 0 1 -0.05806,-0.7789 3.8813617,7.8825191 0 0 1 -0.019345,-0.78711 3.8813617,7.8825191 0 0 1 0.00972,-0.55742 3.8813617,7.8825191 0 0 1 0.046745,-0.78218 3.8813617,7.8825191 0 0 1 0.085079,-0.76886 3.8813617,7.8825191 0 0 1 0.1223302,-0.74786 3.8813617,7.8825191 0 0 1 0.1584821,-0.719 3.8813617,7.8825191 0 0 1 0.1929883,-0.68341 3.8813617,7.8825191 0 0 1 0.2256721,-0.64104 3.8813617,7.8825191 0 0 1 0.1805745,-0.41739 6.3012227,6.468936 0 0 0 -1.1893421,-0.12126 6.3012227,6.468936 0 0 0 -6.3010905,6.46889 6.3012227,6.468936 0 0 0 2.2651115,4.96588 c -0.010207,0.0684 -0.017181,0.13792 -0.017181,0.20923 v 0.95837 c 0,0.76986 0.6197815,1.38945 1.3896343,1.38945 H 22.559552 c 0.76985,0 1.389631,-0.61959 1.389631,-1.38945 v -0.95837 c 0,-0.0588 -0.0047,-0.11634 -0.01168,-0.17309 a 6.3012227,6.468936 0 0 0 2.311677,-5.00202 6.3012227,6.468936 0 0 0 -6.301277,-6.46889 6.3012227,6.468936 0 0 0 -1.18916,0.12126 3.8813617,7.8825191 0 0 1 0.180574,0.41739 3.8813617,7.8825191 0 0 1 0.225672,0.64104 3.8813617,7.8825191 0 0 1 0.192987,0.68341 3.8813617,7.8825191 0 0 1 0.158484,0.719 3.8813617,7.8825191 0 0 1 0.12233,0.74786 3.8813617,7.8825191 0 0 1 0.08491,0.76886 3.8813617,7.8825191 0 0 1 0.04693,0.78218 3.8813617,7.8825191 0 0 1 0.0097,0.55742 3.8813617,7.8825191 0 0 1 -0.01934,0.78711 3.8813617,7.8825191 0 0 1 -0.05806,0.7789 3.8813617,7.8825191 0 0 1 -0.09585,0.76357 3.8813617,7.8825191 0 0 1 -0.133103,0.74018 3.8813617,7.8825191 0 0 1 -0.168707,0.70951 3.8813617,7.8825191 0 0 1 -0.20303,0.67154 3.8813617,7.8825191 0 0 1 -0.136754,0.36516 h -2.17692 a 3.8094846,6.7324852 0 0 0 1.362608,-5.15119 3.8094846,6.7324852 0 0 0 -3.809573,-6.73253 z M 6.1236449,217.0953 c -0.7698491,0 -1.3896307,0.61979 -1.3896307,1.38963 v 0.95819 c 0,0.76986 0.6197816,1.38964 1.3896307,1.38964 H 22.559514 c 0.769854,0 1.389631,-0.61978 1.389631,-1.38964 v -0.95819 c 0,-0.76984 -0.619777,-1.38963 -1.389631,-1.38963 z"
       id="path4537-9" />
    <g
       aria-label="REYceitas"
       style="font-style:normal;font-weight:normal;font-size:30.45571518px;line-height:1.25;font-family:sans-serif;letter-spacing:0px;word-spacing:0px;fill:#808080;fill-opacity:1;stroke:none;stroke-width:0.76139289"
       id="text4516">
      <path
         d="m 30.483968,196.68345 h 4.431545 q 4.431544,0 5.992994,0.34203 1.576322,0.34203 2.557805,1.75477 0.996354,1.39787 0.996354,4.47616 0,2.81061 -0.698935,3.77722 -0.698935,0.96661 -2.751127,1.15993 1.858869,0.461 2.49832,1.23429 0.639452,0.77329 0.788161,1.42762 0.163581,0.63945 0.163581,3.55415 v 6.3499 h -5.814544 v -8.00057 q 0,-1.93323 -0.31229,-2.39423 -0.297419,-0.461 -1.591192,-0.461 v 10.8558 h -6.260672 z m 6.260672,4.11925 v 5.35354 q 1.055838,0 1.472225,-0.28254 0.431257,-0.29742 0.431257,-1.88862 v -1.32351 q 0,-1.14506 -0.416386,-1.50197 -0.401516,-0.3569 -1.487096,-0.3569 z"
         style="font-style:normal;font-variant:normal;font-weight:normal;font-stretch:normal;font-family:Impact;-inkscape-font-specification:Impact;fill:#808080;fill-opacity:1;stroke-width:0.76139289"
         id="path4487" />
      <path
         d="m 46.901502,196.68345 h 10.43941 v 4.81819 h -4.178738 v 4.56538 h 3.911061 v 4.58025 h -3.911061 v 5.29406 h 4.595125 v 4.81819 H 46.901502 Z"
         style="font-style:normal;font-variant:normal;font-weight:normal;font-stretch:normal;font-family:Impact;-inkscape-font-specification:Impact;fill:#808080;fill-opacity:1;stroke-width:0.76139289"
         id="path4489" />
      <path
         d="m 72.910802,196.68345 -4.565383,15.36169 v 8.71438 h -5.799673 v -8.71438 l -4.401802,-15.36169 h 5.755059 q 1.353257,7.03396 1.516838,9.47279 0.520483,-3.85157 1.739901,-9.47279 z"
         style="font-style:normal;font-variant:normal;font-weight:normal;font-stretch:normal;font-family:Impact;-inkscape-font-specification:Impact;fill:#808080;fill-opacity:1;stroke-width:0.76139289"
         id="path4491" />
      <path
         d="m 85.699823,208.47611 h -5.665834 v -2.27525 q 0,-1.18968 -0.193322,-1.60607 -0.193322,-0.43125 -0.713806,-0.43125 -0.520483,0 -0.698935,0.37177 -0.178451,0.37177 -0.178451,1.66555 v 9.30921 q 0,1.05584 0.267677,1.5912 0.267677,0.52048 0.788161,0.52048 0.609709,0 0.817902,-0.55023 0.223064,-0.55022 0.223064,-2.08193 v -2.34961 h 5.353544 q -0.01487,2.36448 -0.178451,3.55416 -0.14871,1.1748 -0.996354,2.42396 -0.832774,1.23429 -2.186031,1.87374 -1.353256,0.62458 -3.345964,0.62458 -2.542934,0 -4.030029,-0.86251 -1.487096,-0.87739 -2.111676,-2.43884 -0.609709,-1.57632 -0.609709,-4.46128 v -5.60635 q 0,-2.5132 0.505613,-3.7921 0.505612,-1.2789 2.156288,-2.27525 1.650676,-1.01123 4.015158,-1.01123 2.349611,0 4.015158,0.99636 1.665547,0.99635 2.215772,2.51319 0.550225,1.51683 0.550225,4.2977 z"
         style="font-style:normal;font-variant:normal;font-weight:normal;font-stretch:normal;font-family:Impact;-inkscape-font-specification:Impact;fill:#808080;fill-opacity:1;stroke-width:0.76139289"
         id="path4493" />
      <path
         d="m 101.07639,211.24211 h -7.777511 v 4.26796 q 0,1.33839 0.193322,1.72504 0.193323,0.38664 0.743548,0.38664 0.684064,0 0.907128,-0.50561 0.237936,-0.52049 0.237936,-1.99271 v -2.60242 h 5.695577 v 1.45736 q 0,1.82912 -0.23794,2.81061 -0.22306,0.98148 -1.070706,2.0968 -0.847644,1.11532 -2.156288,1.68042 -1.293773,0.55022 -3.256739,0.55022 -1.903482,0 -3.360836,-0.55022 -1.457354,-0.55023 -2.275256,-1.50197 -0.803032,-0.96661 -1.115322,-2.11167 -0.31229,-1.15994 -0.31229,-3.36084 v -5.75506 q 0,-2.58754 0.698935,-4.07464 0.698935,-1.50197 2.290127,-2.29013 1.591192,-0.80303 3.658255,-0.80303 2.528062,0 4.163867,0.96661 1.650676,0.95174 2.305003,2.54294 0.66919,1.57632 0.66919,4.44641 z m -6.022738,-3.21213 v -1.44248 q 0,-1.53171 -0.163581,-1.97784 -0.16358,-0.44612 -0.669193,-0.44612 -0.62458,0 -0.773289,0.38664 -0.14871,0.37177 -0.14871,2.03732 v 1.44248 z"
         style="font-style:normal;font-variant:normal;font-weight:normal;font-stretch:normal;font-family:Impact;-inkscape-font-specification:Impact;fill:#808080;fill-opacity:1;stroke-width:0.76139289"
         id="path4495" />
      <path
         d="m 109.24054,196.68345 v 3.13777 h -6.18631 v -3.13777 z m 0,4.34231 v 19.73376 h -6.18631 v -19.73376 z"
         style="font-style:normal;font-variant:normal;font-weight:normal;font-stretch:normal;font-family:Impact;-inkscape-font-specification:Impact;fill:#808080;fill-opacity:1;stroke-width:0.76139289"
         id="path4497" />
      <path
         d="m 117.71699,198.39361 v 3.10803 h 1.62093 v 3.1229 h -1.62093 v 10.55837 q 0,1.9481 0.19332,2.17116 0.2082,0.22307 1.68042,0.22307 v 3.18238 h -2.42397 q -2.05219,0 -2.92957,-0.16358 -0.87739,-0.17845 -1.54658,-0.78816 -0.6692,-0.62458 -0.83278,-1.41274 -0.16358,-0.80303 -0.16358,-3.74748 v -10.02302 h -1.29377 v -3.1229 h 1.29377 v -3.10803 z"
         style="font-style:normal;font-variant:normal;font-weight:normal;font-stretch:normal;font-family:Impact;-inkscape-font-specification:Impact;fill:#808080;fill-opacity:1;stroke-width:0.76139289"
         id="path4499" />
      <path
         d="m 126.02985,208.66944 h -5.63609 v -1.32352 q 0,-2.29013 0.52048,-3.52442 0.53536,-1.24916 2.12655,-2.2009 1.59119,-0.95174 4.13412,-0.95174 3.04855,0 4.59513,1.08558 1.54658,1.07071 1.85887,2.64703 0.31229,1.56145 0.31229,6.454 v 9.90405 h -5.84429 v -1.75477 q -0.55022,1.05584 -1.42761,1.59119 -0.86251,0.52048 -2.06706,0.52048 -1.57632,0 -2.89984,-0.87738 -1.30864,-0.89226 -1.30864,-3.88132 v -1.62094 q 0,-2.21577 0.69893,-3.0188 0.69894,-0.80303 3.46494,-1.87374 2.95932,-1.15993 3.16751,-1.56145 0.20819,-0.40152 0.20819,-1.6358 0,-1.54658 -0.23793,-2.00758 -0.22307,-0.47587 -0.75842,-0.47587 -0.60971,0 -0.75842,0.40151 -0.14871,0.38665 -0.14871,2.03732 z m 1.90348,2.70651 q -1.44248,1.05584 -1.68042,1.76964 -0.22306,0.71381 -0.22306,2.05219 0,1.53171 0.19332,1.97784 0.2082,0.44613 0.80303,0.44613 0.5651,0 0.72868,-0.34203 0.17845,-0.3569 0.17845,-1.844 z"
         style="font-style:normal;font-variant:normal;font-weight:normal;font-stretch:normal;font-family:Impact;-inkscape-font-specification:Impact;fill:#808080;fill-opacity:1;stroke-width:0.76139289"
         id="path4501" />
      <path
         d="m 148.2768,207.33105 h -5.3238 v -1.07071 q 0,-1.36813 -0.16358,-1.72503 -0.14871,-0.37177 -0.77329,-0.37177 -0.50562,0 -0.75842,0.34203 -0.25281,0.32716 -0.25281,0.99635 0,0.90713 0.11897,1.33839 0.13384,0.41638 0.75842,0.922 0.63945,0.50561 2.60241,1.47222 2.61729,1.2789 3.43519,2.4091 0.81791,1.13019 0.81791,3.28648 0,2.40909 -0.62458,3.64338 -0.62458,1.21942 -2.09681,1.88861 -1.45735,0.65432 -3.52441,0.65432 -2.29013,0 -3.92594,-0.7138 -1.62093,-0.71381 -2.23064,-1.93323 -0.60971,-1.21941 -0.60971,-3.68799 v -0.95174 h 5.3238 v 1.24916 q 0,1.59119 0.19333,2.06706 0.20819,0.47587 0.80303,0.47587 0.63945,0 0.89226,-0.31229 0.2528,-0.32716 0.2528,-1.35326 0,-1.41274 -0.32716,-1.76964 -0.34203,-0.3569 -3.49467,-2.11168 -2.64703,-1.48709 -3.227,-2.69164 -0.57997,-1.21942 -0.57997,-2.88496 0,-2.36449 0.62458,-3.47981 0.62458,-1.13019 2.11168,-1.7399 1.50196,-0.60971 3.4798,-0.60971 1.96297,0 3.33109,0.50561 1.383,0.49075 2.11168,1.30865 0.74355,0.8179 0.89226,1.51684 0.16358,0.69893 0.16358,2.18603 z"
         style="font-style:normal;font-variant:normal;font-weight:normal;font-stretch:normal;font-family:Impact;-inkscape-font-specification:Impact;fill:#808080;fill-opacity:1;stroke-width:0.76139289"
         id="path4503" />
    </g>
  </g>
</svg>
